<?xml version="1.0" standalone="no"?>
<!DOCTYPE svg PUBLIC "-//W3C//DTD SVG 20010904//EN"
 "http://www.w3.org/TR/2001/REC-SVG-20010904/DTD/svg10.dtd">
<svg version="1.0" xmlns="http://www.w3.org/2000/svg"
 width="250.000000pt" height="250.000000pt" viewBox="0 0 250.000000 250.000000"
 preserveAspectRatio="xMidYMid meet">
<metadata>
Created by potrace 1.11, written by Peter Selinger 2001-2013
</metadata>
<g transform="translate(0.000000,250.000000) scale(0.100000,-0.100000)"
fill="#000000" stroke="none">
<path d="M1526 2322 c-65 -208 -202 -401 -412 -579 -163 -138 -274 -367 -275
-568 0 -92 20 -203 50 -271 12 -26 21 -48 21 -50 0 -3 -24 8 -52 22 -146 74
-261 89 -408 53 -128 -31 -307 -32 -392 -2 -32 11 -58 18 -58 16 0 -13 57
-145 86 -197 99 -184 240 -307 413 -363 57 -18 219 -25 286 -12 28 5 61 11 75
14 28 5 181 57 177 60 -1 1 -42 5 -92 8 -49 4 -101 8 -114 11 -104 23 -217 72
-311 135 -51 35 -47 40 8 12 55 -28 187 -70 266 -86 74 -14 256 -18 286 -7 10
4 39 32 65 62 112 130 233 349 292 530 34 102 39 118 49 170 3 14 7 32 9 40 3
8 7 35 10 60 10 82 17 125 21 129 2 2 4 -43 4 -100 0 -155 -26 -292 -86 -462
-34 -93 -122 -269 -179 -357 -25 -38 -45 -71 -45 -74 0 -10 112 64 195 129 44
34 117 101 163 149 346 365 410 789 184 1241 -45 91 -127 224 -187 301 l-32
43 -17 -57z"/>
<path d="M2181 1695 c-74 -33 -114 -131 -88 -210 21 -63 89 -115 152 -115 22
0 35 -5 35 -13 0 -23 -89 -198 -144 -282 -166 -254 -390 -449 -666 -579 -92
-43 -267 -106 -295 -106 -8 0 -16 -4 -19 -9 -8 -12 131 24 234 61 420 152 769
475 963 894 93 200 93 270 1 340 -44 34 -122 42 -173 19z"/>
<path d="M1118 373 c7 -3 16 -2 19 1 4 3 -2 6 -13 5 -11 0 -14 -3 -6 -6z"/>
</g>
</svg>
