<?xml version="1.0" encoding="UTF-8" standalone="no"?>
<svg
   xmlns:dc="http://purl.org/dc/elements/1.1/"
   xmlns:cc="http://creativecommons.org/ns#"
   xmlns:rdf="http://www.w3.org/1999/02/22-rdf-syntax-ns#"
   xmlns:svg="http://www.w3.org/2000/svg"
   xmlns="http://www.w3.org/2000/svg"
   xmlns:sodipodi="http://sodipodi.sourceforge.net/DTD/sodipodi-0.dtd"
   xmlns:inkscape="http://www.inkscape.org/namespaces/inkscape"
   inkscape:version="1.0 (4035a4fb49, 2020-05-01)"
   sodipodi:docname="google-plus.svg"
   xml:space="preserve"
   style="enable-background:new 0 0 512 512;"
   viewBox="0 0 512 512"
   y="0px"
   x="0px"
   id="Capa_1"
   version="1.1"><metadata
   id="metadata45"><rdf:RDF><cc:Work
       rdf:about=""><dc:format>image/svg+xml</dc:format><dc:type
         rdf:resource="http://purl.org/dc/dcmitype/StillImage" /></cc:Work></rdf:RDF></metadata><defs
   id="defs43" /><sodipodi:namedview
   inkscape:current-layer="Capa_1"
   inkscape:window-maximized="1"
   inkscape:window-y="-9"
   inkscape:window-x="-9"
   inkscape:cy="196.73506"
   inkscape:cx="299.13946"
   inkscape:zoom="1.1462864"
   showgrid="false"
   id="namedview41"
   inkscape:window-height="1001"
   inkscape:window-width="1920"
   inkscape:pageshadow="2"
   inkscape:pageopacity="0"
   guidetolerance="10"
   gridtolerance="10"
   objecttolerance="10"
   borderopacity="1"
   bordercolor="#666666"
   pagecolor="#ffffff" />
<g
   transform="matrix(0.57403206,0,0,0.57403206,109.04785,109.04779)"
   id="g8">
	<path
   id="path2"
   d="m 270.829,267.947 c -10.069,-7.339 -25.28,-18.411 -25.472,-22.656 0,-6.037 13.781,-19.712 24.853,-30.677 25.515,-25.323 60.48,-59.989 60.48,-107.947 0.573,-35.74 -19.044,-68.751 -50.709,-85.333 h 50.709 c 5.891,0 10.667,-4.776 10.667,-10.667 C 341.357,4.776 336.581,0 330.69,0 H 192.023 c -9.238,0.031 -18.456,0.887 -27.541,2.56 42.475,-8.469 87.083,29.44 100.075,86.037 v 0 c 13.291,57.323 -10.88,111.936 -53.867,121.963 -4.485,1.033 -9.072,1.556 -13.675,1.557 -38.635,0 -76.437,-36.267 -88.299,-87.467 C 95.639,67.904 119.383,13.888 161.453,3.179 99.519,12.344 53.579,65.392 53.357,128 c 0,73.408 68.672,99.819 118.101,105.451 -10.97,20.706 -10.584,45.586 1.024,65.941 C 107.522,303.979 10.69,332.075 10.69,416 c -0.764,22.599 7.871,44.503 23.851,60.501 33.216,32.747 91.52,35.499 121.962,35.499 3.648,0 6.869,0 9.6,0 h 4.587 c 1.813,0 181.333,-3.179 181.333,-117.333 0,-67.563 -48.853,-103.147 -81.194,-126.72 z m -78.806,222.72 c -54.123,0 -117.333,-22.336 -117.333,-85.333 0,-62.997 73.088,-106.667 138.667,-106.667 1.914,0.001 3.794,0.516 5.44,1.493 9.28,5.504 90.56,55.211 90.56,105.173 0,50.987 -60.672,85.334 -117.334,85.334 z"
   style="fill:#f44336" />
	<path
   id="path4"
   d="m 426.69,298.667 c -5.891,0 -10.667,-4.776 -10.667,-10.667 V 160 c 0,-5.891 4.776,-10.667 10.667,-10.667 5.891,0 10.667,4.776 10.667,10.667 v 128 c 0,5.891 -4.776,10.667 -10.667,10.667 z"
   style="fill:#f44336" />
	<path
   id="path6"
   d="m 490.69,234.667 h -128 c -5.891,0 -10.667,-4.776 -10.667,-10.667 0,-5.891 4.776,-10.667 10.667,-10.667 h 128 c 5.891,0 10.667,4.776 10.667,10.667 0,5.891 -4.776,10.667 -10.667,10.667 z"
   style="fill:#f44336" />
</g>
<g
   id="g10">
</g>
<g
   id="g12">
</g>
<g
   id="g14">
</g>
<g
   id="g16">
</g>
<g
   id="g18">
</g>
<g
   id="g20">
</g>
<g
   id="g22">
</g>
<g
   id="g24">
</g>
<g
   id="g26">
</g>
<g
   id="g28">
</g>
<g
   id="g30">
</g>
<g
   id="g32">
</g>
<g
   id="g34">
</g>
<g
   id="g36">
</g>
<g
   id="g38">
</g>
</svg>
