<svg display="none" xmlns="http://www.w3.org/2000/svg">
<!-- video play -->
        <symbol id="play" viewBox="0 0 512 512">
            <g>
                <path d="M256,0C114.833,0,0,114.844,0,256s114.833,256,256,256s256-114.844,256-256S397.167,0,256,0z M256,490.667
				C126.604,490.667,21.333,385.396,21.333,256S126.604,21.333,256,21.333S490.667,126.604,490.667,256S385.396,490.667,256,490.667
				z"/>
			<path d="M357.771,247.031l-149.333-96c-3.271-2.135-7.5-2.25-10.875-0.396C194.125,152.51,192,156.094,192,160v192
				c0,3.906,2.125,7.49,5.563,9.365c1.583,0.865,3.354,1.302,5.104,1.302c2,0,4.021-0.563,5.771-1.698l149.333-96
				c3.042-1.958,4.896-5.344,4.896-8.969S360.813,248.99,357.771,247.031z M213.333,332.458V179.542L332.271,256L213.333,332.458z"
				/>
            </g>
        </symbol>
		<!-- facebook -->
		<symbol  class='facebook' id="facebook" viewBox="0 0 112.196 112.196">
			<g >
				<circle 
				fill="var(--color-0)"
				stroke="var(--color-2)"
				stroke-width='var(--color-3)'
				cx="56.098" cy="56.098" r="52.098"
				/>
			
				<path  
				fill="var(--color-1)" 
				d="M70.201,58.294h-10.01v36.672H45.025V58.294h-7.213V45.406h7.213v-8.34   c0-5.964,2.833-15.303,15.301-15.303L71.56,21.81v12.51h-8.151c-1.337,0-3.217,0.668-3.217,3.513v7.585h11.334L70.201,58.294z"/>
			</g>
		</symbol>
		<!-- twitter -->
		<symbol id="twitter" viewBox="0 0 24 24">
			<g>
				<path d="M 18.777181,8.9391709 C 19.470964,8.5051307 20.054566,7.9633633 20.53012,7.3395479 V 7.3389216 C 19.895337,7.583813 19.220036,7.7466563 18.51488,7.8255728 19.23994,7.4441435 19.793687,6.8447546 20.053855,6.1226069 19.377843,6.4777307 18.631458,6.7282589 17.836024,6.8685548 17.194133,6.2660343 16.279277,5.8933735 15.281253,5.8933735 c -1.936337,0 -3.495217,1.384795 -3.495217,3.082124 0,0.2442651 0.02346,0.4791353 0.08104,0.7027318 C 8.9597229,9.5529652 6.3864699,8.3253766 4.6576988,6.4545568 4.3563012,6.9161551 4.1785904,7.4441435 4.1785904,8.0122163 c 0,1.0672504 0.6234096,2.0129947 1.5539036,2.5610257 -0.5622771,-0.0094 -1.1131807,-0.153449 -1.5802048,-0.379551 v 0.03382 c 0,1.497532 1.2119879,2.741405 2.8021445,3.02826 -0.2850482,0.0689 -0.5949759,0.101464 -0.9169879,0.101464 -0.2239157,0 -0.4499639,-0.01127 -0.6617952,-0.05261 0.4528072,1.220073 1.7394337,2.11759 3.267747,2.147027 -1.1899518,0.819854 -2.7012048,1.314021 -4.3368554,1.314021 -0.2864699,0 -0.5615663,-0.01127 -0.8366627,-0.04196 1.5496386,0.879981 3.3850362,1.382917 5.3654458,1.382917 6.1722527,0 10.1949157,-4.537067 9.9418557,-9.1674561 z"/>
			</g>
		</symbol>
		<!-- google -->
		<symbol id="google" viewBox="0 0 512 512">
			<g>
				<path d="m 264.51238,262.85796 c -5.77993,-4.21282 -14.51153,-10.56851 -14.62175,-13.00527 0,-3.46543 7.91074,-11.31532 14.26642,-17.60958 14.64643,-14.53622 34.71746,-34.43561 34.71746,-61.96504 0.32892,-20.51591 -10.93186,-39.46528 -29.10859,-48.98388 h 29.10859 c 3.38162,0 6.1232,-2.74158 6.1232,-6.1232 0,-3.38162 -2.74158,-6.1232 -6.1232,-6.1232 h -79.5993 c -5.30291,0.0178 -10.59434,0.50917 -15.80942,1.46952 24.38201,-4.86148 49.98844,16.89951 57.44626,49.388 v 0 c 7.62946,32.90524 -6.24547,64.25485 -30.92139,70.01067 -2.57453,0.59298 -5.20761,0.89319 -7.84988,0.89377 -22.17773,0 -43.87729,-20.81842 -50.68646,-50.20886 -7.50662,-32.57403 6.1232,-63.58094 30.27273,-69.72825 -35.5521,5.261 -61.92314,35.71225 -62.05057,71.65125 0,42.13855 39.41993,57.29931 67.79376,60.53226 -6.29713,11.88591 -6.07556,26.16782 0.58781,37.85225 -37.28912,2.63308 -92.8738,18.76109 -92.8738,66.93673 -0.43856,12.97255 4.51821,25.54615 13.69124,34.72951 19.06705,18.79783 52.53542,20.37756 70.0101,20.37756 2.09407,0 3.94303,0 5.51071,0 h 2.63308 c 1.04072,0 104.09096,-1.82484 104.09096,-67.3529 0,-38.78333 -28.04319,-59.20968 -46.60796,-72.74134 z m -45.23717,127.84842 c -31.06834,0 -67.35291,-12.82158 -67.35291,-48.98388 0,-36.1623 41.95486,-61.23028 79.59931,-61.23028 1.0987,5.8e-4 2.17788,0.2962 3.12273,0.85703 5.32702,3.15948 51.98435,31.69289 51.98435,60.37268 0,29.26817 -34.82768,48.98445 -67.35348,48.98445 z"/>
				<path d="m 353.98159,280.49222 c -3.38162,0 -6.1232,-2.74157 -6.1232,-6.1232 v -73.4761 c 0,-3.38162 2.74158,-6.1232 6.1232,-6.1232 3.38162,0 6.1232,2.74158 6.1232,6.1232 v 73.4761 c 0,3.38163 -2.74158,6.1232 -6.1232,6.1232 z" />
				<path d="m 390.71964,243.75417 h -73.4761 c -3.38163,0 -6.1232,-2.74158 -6.1232,-6.1232 0,-3.38162 2.74157,-6.1232 6.1232,-6.1232 h 73.4761 c 3.38162,0 6.1232,2.74158 6.1232,6.1232 0,3.38162 -2.74158,6.1232 -6.1232,6.1232 z" />
			</g>
		</symbol>
		<!-- Vimeo -->
		<symbol id='vimeo' viewBox="0 0 24 24">
			<g>
			<path d="m20.497 1.505c-3.328-.121-5.576 1.787-6.762 5.694.61-.273 1.203-.395 1.777-.395 1.219 0 1.758.697 1.614 2.082-.072.839-.608 2.059-1.612 3.664-1.009 1.605-1.763 2.409-2.265 2.409-1.522 0-2.437-7.284-2.747-9.273-.431-2.765-1.58-4.058-3.447-3.877-1.714.163-4.705 3.249-7.055 5.341l1.129 1.472c1.075-.762 1.702-1.144 1.881-1.144 1.871 0 2.777 6.367 4.23 11.102.975 2.613 2.144 3.92 3.553 3.92 2.264 0 5.022-2.144 8.29-6.434 3.155-4.107 4.789-7.344 4.894-9.705l.013-.01c.134-3.165-1.021-4.785-3.493-4.846z"/>
			</g>
		</symbol>
		<!-- Twitter 1 -->
		<symbol id='twitter1' viewBox="0 0 512 512">
			<g>
				<path d="M512,97.248c-19.04,8.352-39.328,13.888-60.48,16.576c21.76-12.992,38.368-33.408,46.176-58.016
				c-20.288,12.096-42.688,20.64-66.56,25.408C411.872,60.704,384.416,48,354.464,48c-58.112,0-104.896,47.168-104.896,104.992
				c0,8.32,0.704,16.32,2.432,23.936c-87.264-4.256-164.48-46.08-216.352-109.792c-9.056,15.712-14.368,33.696-14.368,53.056
				c0,36.352,18.72,68.576,46.624,87.232c-16.864-0.32-33.408-5.216-47.424-12.928c0,0.32,0,0.736,0,1.152
				c0,51.008,36.384,93.376,84.096,103.136c-8.544,2.336-17.856,3.456-27.52,3.456c-6.72,0-13.504-0.384-19.872-1.792
				c13.6,41.568,52.192,72.128,98.08,73.12c-35.712,27.936-81.056,44.768-130.144,44.768c-8.608,0-16.864-0.384-25.12-1.44
				C46.496,446.88,101.6,464,161.024,464c193.152,0,298.752-160,298.752-298.688c0-4.64-0.16-9.12-0.384-13.568
				C480.224,136.96,497.728,118.496,512,97.248z"/>
			</g>
		</symbol>
		<!-- facebook 1 -->
		<symbol id="facebook1"  viewBox="0 0 24 24">
			<g>
			<path d="m15.997 3.985h2.191v-3.816c-.378-.052-1.678-.169-3.192-.169-3.159 0-5.323 1.987-5.323 5.639v3.361h-3.486v4.266h3.486v10.734h4.274v-10.733h3.345l.531-4.266h-3.877v-2.939c.001-1.233.333-2.077 2.051-2.077z"/>
			</g>
		</symbol>
		<!-- Instagram 1 -->
		<symbol id="instagram1" viewBox="0 0 512.00096 512.00096">
			<g>
				<path d="m373.40625 0h-234.8125c-76.421875 0-138.59375 62.171875-138.59375 138.59375v234.816406c0 76.417969 62.171875 138.589844 138.59375 138.589844h234.816406c76.417969 0 138.589844-62.171875 138.589844-138.589844v-234.816406c0-76.421875-62.171875-138.59375-138.59375-138.59375zm108.578125 373.410156c0 59.867188-48.707031 108.574219-108.578125 108.574219h-234.8125c-59.871094 0-108.578125-48.707031-108.578125-108.574219v-234.816406c0-59.871094 48.707031-108.578125 108.578125-108.578125h234.816406c59.867188 0 108.574219 48.707031 108.574219 108.578125zm0 0"/><path d="m256 116.003906c-77.195312 0-139.996094 62.800782-139.996094 139.996094s62.800782 139.996094 139.996094 139.996094 139.996094-62.800782 139.996094-139.996094-62.800782-139.996094-139.996094-139.996094zm0 249.976563c-60.640625 0-109.980469-49.335938-109.980469-109.980469 0-60.640625 49.339844-109.980469 109.980469-109.980469 60.644531 0 109.980469 49.339844 109.980469 109.980469 0 60.644531-49.335938 109.980469-109.980469 109.980469zm0 0"/><path d="m399.34375 66.285156c-22.8125 0-41.367188 18.558594-41.367188 41.367188 0 22.8125 18.554688 41.371094 41.367188 41.371094s41.371094-18.558594 41.371094-41.371094-18.558594-41.367188-41.371094-41.367188zm0 52.71875c-6.257812 0-11.351562-5.09375-11.351562-11.351562 0-6.261719 5.09375-11.351563 11.351562-11.351563 6.261719 0 11.355469 5.089844 11.355469 11.351563 0 6.257812-5.09375 11.351562-11.355469 11.351562zm0 0"/>
			</g>
		</symbol>

</svg>