<?xml version="1.0" encoding="UTF-8" standalone="no"?>
<svg
   xmlns:dc="http://purl.org/dc/elements/1.1/"
   xmlns:cc="http://creativecommons.org/ns#"
   xmlns:rdf="http://www.w3.org/1999/02/22-rdf-syntax-ns#"
   xmlns:svg="http://www.w3.org/2000/svg"
   xmlns="http://www.w3.org/2000/svg"
   xmlns:sodipodi="http://sodipodi.sourceforge.net/DTD/sodipodi-0.dtd"
   xmlns:inkscape="http://www.inkscape.org/namespaces/inkscape"
   inkscape:version="1.0 (4035a4fb49, 2020-05-01)"
   sodipodi:docname="twitter.svg"
   version="1.1"
   width="512"
   viewBox="0 0 24 24"
   height="512"
   enable-background="new 0 0 24 24"
   id="Bold">
  <metadata
     id="metadata9">
    <rdf:RDF>
      <cc:Work
         rdf:about="">
        <dc:format>image/svg+xml</dc:format>
        <dc:type
           rdf:resource="http://purl.org/dc/dcmitype/StillImage" />
      </cc:Work>
    </rdf:RDF>
  </metadata>
  <defs
     id="defs7" />
  <sodipodi:namedview
     inkscape:current-layer="Bold"
     inkscape:window-maximized="1"
     inkscape:window-y="-9"
     inkscape:window-x="-9"
     inkscape:cy="277.12862"
     inkscape:cx="289.51172"
     inkscape:zoom="0.57314319"
     showgrid="false"
     id="namedview5"
     inkscape:window-height="1001"
     inkscape:window-width="1920"
     inkscape:pageshadow="2"
     inkscape:pageopacity="0"
     guidetolerance="10"
     gridtolerance="10"
     objecttolerance="10"
     borderopacity="1"
     bordercolor="#666666"
     pagecolor="#ffffff" />
  <path
     style="stroke-width:0.667245"
     id="path2"
     d="M 18.777181,8.9391709 C 19.470964,8.5051307 20.054566,7.9633633 20.53012,7.3395479 V 7.3389216 C 19.895337,7.583813 19.220036,7.7466563 18.51488,7.8255728 19.23994,7.4441435 19.793687,6.8447546 20.053855,6.1226069 19.377843,6.4777307 18.631458,6.7282589 17.836024,6.8685548 17.194133,6.2660343 16.279277,5.8933735 15.281253,5.8933735 c -1.936337,0 -3.495217,1.384795 -3.495217,3.082124 0,0.2442651 0.02346,0.4791353 0.08104,0.7027318 C 8.9597229,9.5529652 6.3864699,8.3253766 4.6576988,6.4545568 4.3563012,6.9161551 4.1785904,7.4441435 4.1785904,8.0122163 c 0,1.0672504 0.6234096,2.0129947 1.5539036,2.5610257 -0.5622771,-0.0094 -1.1131807,-0.153449 -1.5802048,-0.379551 v 0.03382 c 0,1.497532 1.2119879,2.741405 2.8021445,3.02826 -0.2850482,0.0689 -0.5949759,0.101464 -0.9169879,0.101464 -0.2239157,0 -0.4499639,-0.01127 -0.6617952,-0.05261 0.4528072,1.220073 1.7394337,2.11759 3.267747,2.147027 -1.1899518,0.819854 -2.7012048,1.314021 -4.3368554,1.314021 -0.2864699,0 -0.5615663,-0.01127 -0.8366627,-0.04196 1.5496386,0.879981 3.3850362,1.382917 5.3654458,1.382917 6.1722527,0 10.1949157,-4.537067 9.9418557,-9.1674561 z" />
</svg>
